<?xml version="1.0" encoding="UTF-8"?>
<svg id="Layer_1" data-name="Layer 1" xmlns="http://www.w3.org/2000/svg" viewBox="0 0 1080 1080">
  <defs>
    <style>
      .cls-1 {
        fill: #195adc;
      }
    </style>
  </defs>
  <path class="cls-1" d="M763.14,584.06l82.86-63.21-77.33,35.51h0c-9.67,4.82,7.06-21.94,7.06-21.94,70.02-112.71,89.85-203.89,46.32-253.56C682.48,119.3,179.32,453.78,238.87,745.44c7.6,37.33,52.84,113.36,173.57,92.23,91.13-15.95,165.69-81.22,217.1-144.98-15.81,13.13-128.27,125.98-250.46,125.03-140.78-1.09-103.36-199.25,43.43-334.27,199.88-198.95,443.93-171.22,312.24,65.92-2.26,3.58-12.66,18.49-24.53,10.8-3.58-2.62-6.79-5.85-9.43-9.67l-103.29-142.15,80.83,155.64c9.08,17.55,4.24,39.09-11.47,51.08l-82.86,63.21,94.71-43.49c17.96-8.25,39.25-2.41,50.49,13.85l98.58,142.63-76.13-156.12c-9.08-17.55-4.24-39.09,11.47-51.08Z"/>
</svg>